<?xml version="1.0" standalone="no"?><!DOCTYPE svg PUBLIC "-//W3C//DTD SVG 1.1//EN" "http://www.w3.org/Graphics/SVG/1.1/DTD/svg11.dtd"><svg class="icon" width="200px" height="200.00px" viewBox="0 0 1024 1024" version="1.1" xmlns="http://www.w3.org/2000/svg"><path fill="#515151" d="M384 896v-267.648C384 591.445333 417.408 554.666667 455.125333 554.666667h113.749334c37.589333 0 71.125333 36.778667 71.125333 73.685333V896h170.666667v-384a42.666667 42.666667 0 0 1 85.333333 0v396.202667c0 40.149333-42.24 73.130667-82.048 73.130666H597.333333a42.538667 42.538667 0 0 1-42.666666-42.666666v-298.666667h-85.333334v298.666667a42.666667 42.666667 0 0 1-42.666666 42.666666H204.8c-37.717333 0-76.8-34.517333-76.8-73.130666V512a42.666667 42.666667 0 0 1 85.333333 0v384h170.666667zM111.957333 417.578667l391.253334-288c3.84-2.816 13.781333-2.816 17.706666 0.085333l392.618667 288.554667a42.666667 42.666667 0 0 0 50.517333-68.736l-392.576-288.597334c-34.005333-25.002667-84.949333-25.002667-118.869333 0l-391.253333 287.957334a42.666667 42.666667 0 1 0 50.602666 68.693333z" /></svg>