<?xml version="1.0" standalone="no"?><!DOCTYPE svg PUBLIC "-//W3C//DTD SVG 1.1//EN" "http://www.w3.org/Graphics/SVG/1.1/DTD/svg11.dtd"><svg class="icon" width="200px" height="200.00px" viewBox="0 0 1024 1024" version="1.1" xmlns="http://www.w3.org/2000/svg"><path fill="#515151" d="M85.376 170.709333h109.184c27.136 0 56.362667 23.338667 62.250667 49.664l86.869333 388.565334c14.634667 65.536 78.165333 116.437333 145.664 116.437333h272.341333c66.816 0 131.2-51.114667 146.176-115.84l70.272-303.488c16.810667-72.576-33.408-135.04-108.16-135.04h-272.213333a42.666667 42.666667 0 0 0 0 85.333333h272.213333c20.053333 0 29.44 11.605333 25.045334 30.464l-70.272 303.488c-6.058667 26.026667-35.925333 49.706667-63.061334 49.706667H489.301333c-27.52 0-56.448-23.125333-62.378666-49.664L340.096 201.770667C325.461333 136.448 261.589333 85.376 194.56 85.376H85.333333a42.666667 42.666667 0 1 0 0 85.333333z"  /><path fill="#515151" d="M405.376 874.709333m-64 0a64 64 0 1 0 128 0 64 64 0 1 0-128 0Z"  /><path fill="#515151" d="M789.376 874.709333m-64 0a64 64 0 1 0 128 0 64 64 0 1 0-128 0Z"  /></svg>